<svg version="1.1" xmlns="http://www.w3.org/2000/svg" style="display: block;" viewBox="0 0 1624 1660" >
<defs>
	<linearGradient id="Gradient1" gradientUnits="userSpaceOnUse" x1="583.242" y1="889.778" x2="623.935" y2="828.915">
		<stop class="stop0" offset="0" stop-opacity="1" stop-color="rgb(116,115,115)"/>
		<stop class="stop1" offset="1" stop-opacity="1" stop-color="rgb(177,176,175)"/>
	</linearGradient>
	<linearGradient id="Gradient2" gradientUnits="userSpaceOnUse" x1="568.806" y1="826.395" x2="512.621" y2="860.311">
		<stop class="stop0" offset="0" stop-opacity="1" stop-color="rgb(149,148,148)"/>
		<stop class="stop1" offset="1" stop-opacity="1" stop-color="rgb(214,213,213)"/>
	</linearGradient>
	<linearGradient id="Gradient3" gradientUnits="userSpaceOnUse" x1="512.942" y1="776.977" x2="672.212" y2="762.396">
		<stop class="stop0" offset="0" stop-opacity="1" stop-color="rgb(134,133,133)"/>
		<stop class="stop1" offset="1" stop-opacity="1" stop-color="rgb(219,218,218)"/>
	</linearGradient>
	<linearGradient id="Gradient4" gradientUnits="userSpaceOnUse" x1="928.989" y1="870.491" x2="923.812" y2="860.11">
		<stop class="stop0" offset="0" stop-opacity="1" stop-color="rgb(109,107,111)"/>
		<stop class="stop1" offset="1" stop-opacity="1" stop-color="rgb(125,128,121)"/>
	</linearGradient>
	<linearGradient id="Gradient5" gradientUnits="userSpaceOnUse" x1="769.01" y1="1063.85" x2="696.46" y2="1117.54">
		<stop class="stop0" offset="0" stop-opacity="1" stop-color="rgb(175,177,180)"/>
		<stop class="stop1" offset="1" stop-opacity="1" stop-color="rgb(214,212,212)"/>
	</linearGradient>
	<linearGradient id="Gradient6" gradientUnits="userSpaceOnUse" x1="713.14" y1="1165.92" x2="820.672" y2="1228.22">
		<stop class="stop0" offset="0" stop-opacity="1" stop-color="rgb(188,187,188)"/>
		<stop class="stop1" offset="1" stop-opacity="1" stop-color="rgb(229,230,227)"/>
	</linearGradient>
	<linearGradient id="Gradient7" gradientUnits="userSpaceOnUse" x1="1103.39" y1="864.547" x2="557.646" y2="1244.53">
		<stop class="stop0" offset="0" stop-opacity="1" stop-color="rgb(213,212,213)"/>
		<stop class="stop1" offset="1" stop-opacity="1" stop-color="rgb(255,255,255)"/>
	</linearGradient>
</defs>
<path transform="translate(0,0)" fill="rgb(254,254,254)" d="M 0 0 L 933.164 0 L 934.928 0 L 1624 0 L 1624 1660 L 0 1660 L 0 0 z"/>
<path transform="translate(0,0)" fill="rgb(254,254,254)" d="M 402.326 1366.42 C 402.023 1365.27 400.775 1360.57 399.954 1359.88 C 385.084 1347.25 368.859 1336.14 354.339 1323.07 C 333.812 1303.87 312.634 1283.86 294.34 1262.96 C 205.83 1160.92 149.094 1035.23 131.117 901.36 C 127.086 873.114 123.113 843.969 123.705 815.458 C 126.149 697.755 156.087 584.637 212.49 481.877 C 299.178 322.776 454.331 209.786 626.681 159.741 C 810.548 106.352 1002.24 132.923 1168.41 226.452 C 1216.13 253.308 1273.04 297.683 1312.06 336.081 C 1392.17 415.815 1450.8 514.52 1482.49 623.008 C 1533.03 797.227 1512.12 984.402 1424.38 1143.17 C 1401.6 1184.09 1382.97 1209.48 1354.36 1245.25 C 1262.04 1360.67 1140.45 1436.42 998.802 1476.5 C 859.523 1514.65 711.701 1507.36 576.856 1455.67 C 546.69 1444.42 518.315 1432.31 489.786 1416.48 C 477.986 1409.93 458.477 1396.72 445.549 1390.15 C 445.118 1389.93 439.872 1390.71 438.855 1390.89 C 426.778 1382.59 414.601 1374.43 402.326 1366.42 z"/>
<path transform="translate(0,0)" fill="rgb(100,100,101)" d="M 724.385 324.126 C 726.841 312.629 730.163 301.185 732.961 289.75 C 735.891 277.773 738.263 265.002 742.546 253.443 C 744.439 248.335 746.979 242.518 752.24 240.243 C 766.025 234.282 846.905 233.187 860.477 239.394 C 863.278 240.675 864.835 241.818 866.473 244.422 C 873.211 255.137 875.889 269.967 879.461 281.997 C 883.351 295.096 887.449 308.036 892.115 320.881 C 919.519 328.568 963.384 334.668 989.233 345.757 C 1002.02 332.572 1015.83 320.25 1028.12 306.408 C 1036.01 297.519 1043.42 290.308 1054.78 286.357 C 1071.78 291.165 1144.48 328.679 1152.33 342.214 C 1157.58 351.241 1141.27 416.72 1137.41 429.086 C 1141.32 432.616 1146.06 436.33 1150.18 439.711 C 1167.81 455.143 1183.29 470.589 1199.68 487.216 C 1204.73 491.891 1206.95 493.551 1212.72 497.378 C 1222.48 493.148 1286.93 473.991 1296.84 476.983 C 1307.78 480.289 1362.2 568.938 1354.52 579.872 C 1343.99 594.853 1312.69 622.637 1297.04 638.056 C 1308.36 672.474 1314.78 696.637 1323.21 731.986 C 1337.7 735.928 1352.26 739.589 1366.88 742.968 C 1386.02 747.551 1408.65 747.819 1410.03 771.721 C 1411.79 799.079 1412.03 826.728 1411.13 854.148 C 1410.79 864.703 1409.17 872.757 1398.62 877.172 C 1375.42 886.882 1347.45 890.398 1324.48 899.924 C 1317.8 931.452 1310.97 962.375 1299.33 992.59 C 1314 1010.61 1347.39 1035.15 1357.17 1052.02 C 1358.54 1054.37 1358.54 1057.09 1358.25 1059.72 C 1356.41 1076.46 1320.66 1142.46 1307.76 1152.6 C 1302.92 1156.4 1295.67 1155.51 1289.94 1154.62 C 1276.83 1152.59 1263.68 1148.78 1250.79 1145.67 C 1240.55 1143.2 1229.58 1141.24 1219.6 1137.91 C 1200.97 1159.21 1185.48 1176.53 1164.61 1195.55 L 1164.18 1196.12 C 1159.82 1201.82 1152.81 1206.59 1152.25 1212.77 C 1156.33 1224.13 1176.72 1283.9 1171.11 1292.22 C 1162.19 1305.46 1101.18 1338.96 1083.27 1346.25 C 1079.1 1347.94 1074.45 1348.04 1070.9 1345.77 C 1058.29 1337.72 1029.01 1306.87 1021.04 1295.27 C 1017.71 1292.69 1013.12 1288.39 1008.52 1289.63 C 986.638 1295.56 965.609 1305.63 944.699 1314.2 C 938.535 1316.73 920.778 1315.31 915.614 1319.13 C 908.872 1333.39 905.377 1356.28 901.316 1372.08 C 899.063 1380.84 895.958 1397.52 887.311 1402.16 C 875.94 1408.26 794.57 1409.81 782.234 1405.51 C 776.928 1403.67 772.807 1400.32 770.114 1395.37 C 766.955 1389.56 765.63 1381.79 763.731 1375.42 C 758.421 1357.62 753.753 1338.18 745.871 1321.38 L 745.288 1320.15 C 711.405 1315.12 681.162 1306.53 648.504 1297.05 C 632.462 1312.37 601.146 1349.67 583.897 1358.07 C 562.254 1352.59 503.976 1321.93 487.468 1305.97 C 480.587 1299.32 498.146 1231.27 501.019 1218.07 C 471.902 1195.76 452.11 1176.39 427.126 1150.48 C 412.951 1154.61 346.689 1179.3 337.905 1168.65 C 320.295 1147.31 288.09 1100.74 281.775 1074.3 C 279.586 1065.14 329.027 1020.68 338.266 1010.8 C 326.545 980.431 317.477 946.886 308.396 915.433 C 286.419 909.018 255.97 903.28 235.904 894.94 C 230.754 892.799 225.884 890.358 223.777 884.889 C 218.113 870.19 216.921 791.223 223.37 777.481 C 224.972 774.067 227.141 772.653 230.486 771.004 C 239.146 766.736 249.163 764.783 258.469 762.294 C 274.195 758.086 290.185 754.049 305.392 748.217 C 312.819 711.699 319.495 687.813 331.096 652.652 C 315.56 634.279 286.546 611.877 273.602 594.273 C 264.744 582.225 314.773 497.606 327.067 490.069 C 335.528 484.882 399.344 505.649 411.271 509.669 C 426.963 488.762 462.931 454.393 482.065 436.705 C 476.802 417.213 464.86 378.983 463.053 360.522 C 462.628 356.174 462.409 352.24 465.447 348.766 C 475.446 337.331 548.411 294.388 562.002 294.184 C 573.548 294.009 617.232 340.72 627.624 350.808 C 646.38 342.934 704.299 327.026 724.385 324.126 z"/>
<path transform="translate(0,0)" fill="rgb(61,63,65)" d="M 724.385 324.126 C 726.841 312.629 730.163 301.185 732.961 289.75 C 735.891 277.773 738.263 265.002 742.546 253.443 C 744.439 248.335 746.979 242.518 752.24 240.243 C 766.025 234.282 846.905 233.187 860.477 239.394 C 863.278 240.675 864.835 241.818 866.473 244.422 C 873.211 255.137 875.889 269.967 879.461 281.997 C 883.351 295.096 887.449 308.036 892.115 320.881 C 919.519 328.568 963.384 334.668 989.233 345.757 C 1002.02 332.572 1015.83 320.25 1028.12 306.408 C 1036.01 297.519 1043.42 290.308 1054.78 286.357 C 1071.78 291.165 1144.48 328.679 1152.33 342.214 C 1157.58 351.241 1141.27 416.72 1137.41 429.086 C 1141.32 432.616 1146.06 436.33 1150.18 439.711 C 1146.19 445.221 1147.81 446.164 1145.87 450.791 C 1129.88 454.956 1125.48 458.028 1113.55 444.594 C 1112.99 436.598 1110.36 424.321 1109.39 415.034 C 1096.93 405.518 1080.47 399.494 1065.59 394.586 C 1058.71 398.798 1050.26 405.601 1042.61 410.511 C 1029.24 409.63 1026.39 408.5 1013.69 404.412 C 1006.11 396.18 1001.99 388.271 994.918 380.03 C 978.55 379.543 952.073 381.361 937.169 387.444 C 941.333 391.495 937.391 408.613 935.559 409.582 C 927.923 413.622 913.277 418.436 904.784 420.011 C 895.49 417.4 888.867 413.262 878.897 410.342 C 871.914 410.389 842.31 433.852 836.879 439.269 L 835.98 440.183 C 836.575 449.568 839.318 464.503 838.957 472.331 C 815.4 498.727 827.846 493.51 792.078 494.169 C 782.582 504.345 772.828 527.272 769.816 541.028 C 773.285 552.233 779.417 557.646 785.205 567.088 C 784.254 578.598 783.522 591.781 774.041 599.776 C 764.614 607.725 756.137 605.041 754.324 618.878 C 753.423 625.754 755.223 635.742 754.589 640.386 C 749.167 635.667 741.634 630.186 735.77 625.744 C 735.608 617.141 738.57 597.782 735.175 591.358 C 729.772 581.134 698.512 566.385 687.914 562.599 C 677.03 567.016 667.763 574.112 656.861 579.457 C 645.348 575.84 634.888 573.868 623.051 571.953 C 612.524 547.195 609.633 537.791 579.708 539.91 C 570.937 540.531 560.66 540.285 551.524 541 C 539.987 553.914 540.351 559.316 531.947 572.33 C 518.034 574.301 509.648 576.403 496.78 581.758 C 490.263 578.376 481.523 573.648 476.146 568.584 C 452.897 557.184 446.323 581.597 428.904 581.804 C 423.908 585.362 413.322 602.066 414.147 607.828 C 407.377 620.789 398.4 637.021 393.642 650.621 C 388.437 655.021 366.601 652.593 358.041 652.527 C 347.815 663.893 334.876 683.554 330.945 698.325 L 331.388 699.668 C 337.204 716.979 357.22 732.581 343.942 757.437 C 331.444 780.834 304.22 770.968 307.818 805.557 C 304.435 858.817 339.852 833.687 347.735 878.753 C 351.226 898.713 338.685 899.654 330.665 914.701 C 335.058 926.012 347.006 951.318 352.719 962.711 C 359.272 963.658 377.613 964.967 381.829 965.974 C 391.668 991.057 401.692 1016.35 415.044 1039.86 C 492.843 1176.9 643.57 1264.22 800.227 1270.28 C 806.657 1270.53 813.152 1271.64 819.604 1271.66 C 827.116 1271.6 838.358 1267.95 845.453 1269.63 C 853.442 1271.53 864.203 1278.23 871.545 1282.4 C 873.463 1294.53 873.411 1302.01 882.326 1311.1 C 890.422 1313.77 912.04 1316.91 915.614 1319.13 C 908.872 1333.39 905.377 1356.28 901.316 1372.08 C 899.063 1380.84 895.958 1397.52 887.311 1402.16 C 875.94 1408.26 794.57 1409.81 782.234 1405.51 C 776.928 1403.67 772.807 1400.32 770.114 1395.37 C 766.955 1389.56 765.63 1381.79 763.731 1375.42 C 758.421 1357.62 753.753 1338.18 745.871 1321.38 L 745.288 1320.15 C 711.405 1315.12 681.162 1306.53 648.504 1297.05 C 632.462 1312.37 601.146 1349.67 583.897 1358.07 C 562.254 1352.59 503.976 1321.93 487.468 1305.97 C 480.587 1299.32 498.146 1231.27 501.019 1218.07 C 471.902 1195.76 452.11 1176.39 427.126 1150.48 C 412.951 1154.61 346.689 1179.3 337.905 1168.65 C 320.295 1147.31 288.09 1100.74 281.775 1074.3 C 279.586 1065.14 329.027 1020.68 338.266 1010.8 C 326.545 980.431 317.477 946.886 308.396 915.433 C 286.419 909.018 255.97 903.28 235.904 894.94 C 230.754 892.799 225.884 890.358 223.777 884.889 C 218.113 870.19 216.921 791.223 223.37 777.481 C 224.972 774.067 227.141 772.653 230.486 771.004 C 239.146 766.736 249.163 764.783 258.469 762.294 C 274.195 758.086 290.185 754.049 305.392 748.217 C 312.819 711.699 319.495 687.813 331.096 652.652 C 315.56 634.279 286.546 611.877 273.602 594.273 C 264.744 582.225 314.773 497.606 327.067 490.069 C 335.528 484.882 399.344 505.649 411.271 509.669 C 426.963 488.762 462.931 454.393 482.065 436.705 C 476.802 417.213 464.86 378.983 463.053 360.522 C 462.628 356.174 462.409 352.24 465.447 348.766 C 475.446 337.331 548.411 294.388 562.002 294.184 C 573.548 294.009 617.232 340.72 627.624 350.808 C 646.38 342.934 704.299 327.026 724.385 324.126 z"/>
<path transform="translate(0,0)" fill="rgb(200,199,199)" d="M 476.146 568.584 C 479.171 566.381 497.285 542.052 502.462 536.576 C 580.506 454.021 693.318 402.508 807.623 405.058 C 829.994 405.557 857.388 405.373 878.897 410.342 C 871.914 410.389 842.31 433.852 836.879 439.269 L 835.98 440.183 C 836.575 449.568 839.318 464.503 838.957 472.331 C 815.4 498.727 827.846 493.51 792.078 494.169 C 782.582 504.345 772.828 527.272 769.816 541.028 C 773.285 552.233 779.417 557.646 785.205 567.088 C 784.254 578.598 783.522 591.781 774.041 599.776 C 764.614 607.725 756.137 605.041 754.324 618.878 C 753.423 625.754 755.223 635.742 754.589 640.386 C 749.167 635.667 741.634 630.186 735.77 625.744 C 735.608 617.141 738.57 597.782 735.175 591.358 C 729.772 581.134 698.512 566.385 687.914 562.599 C 677.03 567.016 667.763 574.112 656.861 579.457 C 645.348 575.84 634.888 573.868 623.051 571.953 C 612.524 547.195 609.633 537.791 579.708 539.91 C 570.937 540.531 560.66 540.285 551.524 541 C 539.987 553.914 540.351 559.316 531.947 572.33 C 518.034 574.301 509.648 576.403 496.78 581.758 C 490.263 578.376 481.523 573.648 476.146 568.584 z"/>
<path transform="translate(0,0)" fill="rgb(254,254,254)" d="M 428.904 581.804 C 465.284 524.581 513.878 476.118 571.198 439.892 C 653.368 388.549 749.787 364.789 846.404 372.075 C 881.229 374.854 903.594 379.852 937.169 387.444 C 941.333 391.495 937.391 408.613 935.559 409.582 C 927.923 413.622 913.277 418.436 904.784 420.011 C 895.49 417.4 888.867 413.262 878.897 410.342 C 857.388 405.373 829.994 405.557 807.623 405.058 C 693.318 402.508 580.506 454.021 502.462 536.576 C 497.285 542.052 479.171 566.381 476.146 568.584 C 452.897 557.184 446.323 581.597 428.904 581.804 z"/>
<path transform="translate(0,0)" fill="rgb(254,254,254)" d="M 937.169 387.444 C 952.073 381.361 978.55 379.543 994.918 380.03 C 1001.99 388.271 1006.11 396.18 1013.69 404.412 C 1026.39 408.5 1029.24 409.63 1042.61 410.511 C 1050.26 405.601 1058.71 398.798 1065.59 394.586 C 1080.47 399.494 1096.93 405.518 1109.39 415.034 C 1110.36 424.321 1112.99 436.598 1113.55 444.594 C 1108.89 444.174 1107.19 444.883 1102.7 446.002 C 1110.05 453.133 1119.85 460.279 1128.21 466.357 C 1137.27 463.182 1143.95 460.906 1153.57 459.146 C 1161.39 465.252 1177.2 483.668 1182.24 492.301 C 1178.3 501.017 1174.17 508.763 1170.19 517.226 C 1182.43 545.037 1180.3 547.048 1210.25 554.117 C 1214.94 566.893 1218.23 580.143 1220.04 593.632 C 1212.91 600.384 1205.26 606.551 1197.14 612.075 C 1196.72 623.674 1196.59 641.156 1194.55 651.983 C 1201.53 659.586 1212.07 666.773 1211.34 677.67 C 1210.9 684.272 1202.04 703.661 1198.27 708.73 C 1185.12 710.013 1172.73 709.084 1163.99 720.695 C 1159.11 727.183 1152.5 739.985 1149.8 747.489 C 1152.28 755.402 1154.76 762.897 1156.46 771.034 C 1146.98 779.76 1137.1 788.562 1128.39 798.022 C 1120.28 795.309 1106.39 790.278 1098.58 788.563 C 1087.93 793.71 1076.63 799.971 1065.92 804.478 C 1062.3 814.19 1059.57 824.01 1054.49 832.874 C 1042.88 837.42 1030.48 838.435 1018.86 841.963 C 1011.25 834.043 1003.3 824.04 995.982 815.585 C 984.055 814.96 973.061 814.357 961.199 813.074 C 947.108 815.768 940.481 804.377 925.914 817.023 L 926.459 818.268 C 930.338 819.202 941.653 820.585 944.672 822.877 L 943.827 822.968 C 941.135 823.233 939.994 823.437 937.466 822.844 C 932.039 821.571 923.423 828.64 917.802 830.323 C 913.775 831.529 909.618 831.91 905.357 832.144 L 906.231 828.336 C 904.331 826.293 898.75 822.216 896.303 820.326 C 870.582 808.916 869.936 809.856 871.102 781.736 C 860.869 770.791 850.507 764.183 841.015 754.333 C 832.405 755.402 820.839 755.154 811.956 755.223 C 807.327 746.081 804.442 734.5 801.771 724.548 C 807.333 715.279 813.842 704.982 818.348 695.304 C 815.114 685.936 797.952 655.215 792.253 647.033 C 785.944 646.784 776.659 646.696 770.608 647.774 C 763.472 649.557 754.546 650.318 754.589 640.386 C 755.223 635.742 753.423 625.754 754.324 618.878 C 756.137 605.041 764.614 607.725 774.041 599.776 C 783.522 591.781 784.254 578.598 785.205 567.088 C 779.417 557.646 773.285 552.233 769.816 541.028 C 772.828 527.272 782.582 504.345 792.078 494.169 C 827.846 493.51 815.4 498.727 838.957 472.331 C 839.318 464.503 836.575 449.568 835.98 440.183 L 836.879 439.269 C 842.31 433.852 871.914 410.389 878.897 410.342 C 888.867 413.262 895.49 417.4 904.784 420.011 C 913.277 418.436 927.923 413.622 935.559 409.582 C 937.391 408.613 941.333 391.495 937.169 387.444 z"/>
<path transform="translate(0,0)" fill="rgb(112,112,112)" d="M 937.169 387.444 C 952.073 381.361 978.55 379.543 994.918 380.03 C 1001.99 388.271 1006.11 396.18 1013.69 404.412 C 1026.39 408.5 1029.24 409.63 1042.61 410.511 C 1050.26 405.601 1058.71 398.798 1065.59 394.586 C 1080.47 399.494 1096.93 405.518 1109.39 415.034 C 1110.36 424.321 1112.99 436.598 1113.55 444.594 C 1108.89 444.174 1107.19 444.883 1102.7 446.002 C 1101.37 439.845 1102.06 425.816 1102 418.746 C 1090.17 412.472 1079.8 406.793 1066.62 403.791 C 1057.49 409.109 1050.72 415.637 1042.78 420.386 C 1031.26 418.456 1019.79 416.298 1008.36 413.914 C 1001.93 406.91 997.338 396.81 991.27 388.757 C 976.657 388.767 966.878 389.804 952.297 391.721 C 947.759 400.215 943.863 412.415 941.118 421.77 C 928.201 425.84 915.556 431.19 903.082 435.1 C 895.043 429.802 886.503 425.309 877.584 421.684 C 867.219 427.114 854.023 438.315 845.211 446.347 C 848.816 456.67 852.496 467.117 847.125 477.545 C 842.78 485.98 831.452 498.64 824.499 505.032 C 814.839 505.189 805.177 505.219 795.516 505.124 C 791.158 514.359 782.563 531.612 779.661 540.592 C 784.936 549.767 792.254 558.761 796.506 567.686 C 794.54 579.409 792.204 591.068 789.504 602.645 C 781.798 606.978 765.558 614.249 764.584 622.658 C 763.918 628.403 761.377 647.734 769.27 647.523 C 769.716 647.606 770.162 647.69 770.608 647.774 C 763.472 649.557 754.546 650.318 754.589 640.386 C 755.223 635.742 753.423 625.754 754.324 618.878 C 756.137 605.041 764.614 607.725 774.041 599.776 C 783.522 591.781 784.254 578.598 785.205 567.088 C 779.417 557.646 773.285 552.233 769.816 541.028 C 772.828 527.272 782.582 504.345 792.078 494.169 C 827.846 493.51 815.4 498.727 838.957 472.331 C 839.318 464.503 836.575 449.568 835.98 440.183 L 836.879 439.269 C 842.31 433.852 871.914 410.389 878.897 410.342 C 888.867 413.262 895.49 417.4 904.784 420.011 C 913.277 418.436 927.923 413.622 935.559 409.582 C 937.391 408.613 941.333 391.495 937.169 387.444 z"/>
<path transform="translate(0,0)" fill="rgb(112,112,112)" d="M 918.973 820.144 C 931.73 805.351 944.947 809.632 961.199 813.074 C 947.108 815.768 940.481 804.377 925.914 817.023 L 926.459 818.268 C 930.338 819.202 941.653 820.585 944.672 822.877 L 943.827 822.968 C 941.135 823.233 939.994 823.437 937.466 822.844 C 932.039 821.571 923.423 828.64 917.802 830.323 C 913.775 831.529 909.618 831.91 905.357 832.144 L 906.231 828.336 C 913.615 827.676 914.679 825.755 918.973 820.144 z"/>
<path transform="translate(0,0)" fill="rgb(200,199,199)" d="M 896.303 820.326 C 905.578 819.752 909.36 821.643 918.973 820.144 C 914.679 825.755 913.615 827.676 906.231 828.336 C 904.331 826.293 898.75 822.216 896.303 820.326 z"/>
<path transform="translate(0,0)" fill="rgb(61,63,65)" d="M 977.959 456.555 C 1066.36 449.213 1144.05 514.774 1151.66 603.155 C 1159.28 691.535 1093.96 769.421 1005.6 777.312 C 916.857 785.237 838.555 719.567 830.904 630.798 C 823.254 542.029 889.167 463.93 977.959 456.555 z"/>
<path transform="translate(0,0)" fill="rgb(222,222,222)" d="M 949.992 528.504 C 945.437 528.155 940.314 528.177 936.903 525.029 C 933.786 522.107 929.374 514.787 929.577 510.377 C 930.751 484.968 971.87 486.666 967.736 514.402 C 966.876 520.172 963.478 522.54 959.188 526.016 C 964.202 539.076 969.771 551.559 975.402 564.347 C 978.6 565.62 1000.53 565.77 1009.24 568.03 C 1010.72 569.863 1011.49 571.363 1013.7 571.846 C 1025.51 578.463 1032.02 585.753 1036.65 598.562 C 1048.5 596.697 1064.69 593.085 1075.76 592.02 C 1078.75 591.656 1080.9 590.945 1083.36 592.455 C 1083.47 595.943 1083.78 594.265 1082.03 597.59 C 1069.99 600.958 1050.74 604.055 1037.95 606.309 C 1038.56 618.249 1036.61 631.127 1028.09 640.192 C 1024.48 642.627 1025.52 641.241 1024.17 645.398 C 1013.29 653.254 1006.05 656.664 992.714 659.111 C 992.713 671.711 992.301 683.165 991.689 695.761 L 990.927 709.801 C 1027.13 729.582 985.804 765.604 970.577 735.756 C 964.577 723.995 972.413 714.269 983.77 710.042 C 983.846 704.415 983.737 698.768 984.623 693.219 L 985.945 658.538 C 974.122 654.935 964.163 651.817 956.552 641.837 C 945.914 651.807 926.21 664.914 913.755 673.684 C 914.355 681.473 914.402 695.342 905.59 698.502 C 867.154 712.282 868.488 649.526 909.766 667.702 C 923.007 657.947 939.124 645.183 952.786 636.854 C 946.728 626.13 945.425 619.595 944.594 607.54 C 930.076 604.053 915.606 600.369 901.188 596.491 C 898.967 598.654 896.682 600.876 893.979 602.431 C 889.517 604.975 884.194 605.536 879.3 603.978 C 869.275 600.695 863.732 588.668 868.164 578.918 C 871.344 571.924 876.394 569.952 883.063 567.371 C 903.378 573.103 897.138 576.41 902.81 586.958 C 905.1 591.216 939.969 598.193 946.905 598.918 C 952.653 585.149 957.379 578.793 969.201 570.023 C 962.972 554.893 957.656 542.924 949.992 528.504 z"/>
<path transform="translate(0,0)" fill="rgb(200,199,199)" d="M 984.623 693.219 L 985.673 694.938 C 986.839 687.711 987.04 662.727 988.871 658.964 L 990.516 658.212 C 990.824 663.694 989.439 693.382 990.712 695.602 L 991.689 695.761 L 990.927 709.801 C 1027.13 729.582 985.804 765.604 970.577 735.756 C 964.577 723.995 972.413 714.269 983.77 710.042 C 983.846 704.415 983.737 698.768 984.623 693.219 z"/>
<path transform="translate(0,0)" fill="rgb(254,254,254)" d="M 1033.69 528.908 L 1032.85 528.031 C 1024.13 518.791 1024.93 510.644 1032.66 501.252 C 1046.76 484.134 1067.73 502.601 1063.32 520.429 C 1059.68 536.972 1045.99 529.291 1040.33 533.046 C 1029.18 540.438 1022.82 561.038 1013.7 571.846 C 1011.49 571.363 1010.72 569.863 1009.24 568.03 C 1016.52 555.711 1025.24 540.294 1033.69 528.908 z"/>
<path transform="translate(0,0)" fill="rgb(222,222,222)" d="M 1079.97 670.645 C 1091.42 675.281 1101.88 684.75 1095.84 698.239 C 1093.61 703.226 1089.39 707.048 1084.21 708.774 C 1073.25 712.352 1063.69 706.75 1060.87 695.394 C 1058.48 685.778 1061.63 686.416 1062.68 679.655 L 1064.38 679.299 L 1066.05 675.685 C 1070.7 674.035 1075.34 672.355 1079.97 670.645 z"/>
<path transform="translate(0,0)" fill="rgb(200,199,199)" d="M 1075.76 592.02 C 1078.79 591.22 1082.1 590.986 1083.18 587.909 C 1093.53 558.367 1131.87 576.006 1116.7 602.682 C 1111.76 611.383 1098.29 612.252 1090.68 606.962 C 1087.83 605.044 1085.38 599.366 1082.03 597.59 C 1083.78 594.265 1083.47 595.943 1083.36 592.455 C 1080.9 590.945 1078.75 591.656 1075.76 592.02 z"/>
<path transform="translate(0,0)" fill="rgb(254,254,254)" d="M 1024.17 645.398 C 1025.52 641.241 1024.48 642.627 1028.09 640.192 C 1039.05 648.5 1057.06 665.357 1066.05 675.685 L 1064.38 679.299 L 1062.68 679.655 C 1055 675.122 1034.02 653.273 1024.17 645.398 z"/>
<path transform="translate(0,0)" fill="rgb(61,63,65)" d="M 1212.72 497.378 C 1222.48 493.148 1286.93 473.991 1296.84 476.983 C 1307.78 480.289 1362.2 568.938 1354.52 579.872 C 1343.99 594.853 1312.69 622.637 1297.04 638.056 C 1308.36 672.474 1314.78 696.637 1323.21 731.986 C 1337.7 735.928 1352.26 739.589 1366.88 742.968 C 1386.02 747.551 1408.65 747.819 1410.03 771.721 C 1411.79 799.079 1412.03 826.728 1411.13 854.148 C 1410.79 864.703 1409.17 872.757 1398.62 877.172 C 1375.42 886.882 1347.45 890.398 1324.48 899.924 C 1317.8 931.452 1310.97 962.375 1299.33 992.59 C 1314 1010.61 1347.39 1035.15 1357.17 1052.02 C 1358.54 1054.37 1358.54 1057.09 1358.25 1059.72 C 1356.41 1076.46 1320.66 1142.46 1307.76 1152.6 C 1302.92 1156.4 1295.67 1155.51 1289.94 1154.62 C 1276.83 1152.59 1263.68 1148.78 1250.79 1145.67 C 1240.55 1143.2 1229.58 1141.24 1219.6 1137.91 C 1200.97 1159.21 1185.48 1176.53 1164.61 1195.55 C 1165.63 1190.59 1181.46 1168.04 1182.66 1158.44 C 1184.09 1147 1174.11 1138.95 1167.07 1128.07 C 1167.17 1117.91 1169.37 1107.08 1172.33 1097.39 C 1178.41 1092.23 1184.84 1087.31 1190.84 1082.04 C 1199.18 1074.71 1198.01 1074.93 1200.28 1065.08 C 1199.1 1064.28 1198.67 1063.68 1197.67 1062.64 C 1196.08 1050.85 1190.41 1028.92 1193.7 1019.02 C 1188.16 1009.36 1186.32 1006.2 1178.1 998.768 C 1175.06 995.746 1172.5 994.008 1171.82 989.951 C 1172.09 989.393 1172.94 987.11 1172.68 986.571 C 1165.3 971.814 1160.21 956.117 1154.26 940.819 C 1147.65 917.562 1124.99 897.849 1108.65 879.817 C 1100.68 881.098 1094.12 879.796 1086.11 878.726 C 1074.27 867.199 1063.16 856.962 1053.17 843.657 C 1067.63 837.434 1065.83 834.509 1070.02 820.524 C 1073.27 809.66 1092.63 803.714 1102.7 798.963 C 1108.87 800.677 1121.56 807.119 1127.1 806.589 C 1137.49 805.597 1160.36 781.545 1166.97 774.273 C 1162.97 750.36 1154.93 738.065 1180.04 719.244 C 1211.26 717.942 1204.44 720.046 1217.2 694.043 C 1219.78 687.845 1222.85 677.33 1225.02 670.668 C 1219.46 662.281 1212.73 655.885 1205.87 648.531 C 1205.82 642.083 1206.88 601.304 1221.4 611.061 C 1222.1 605.157 1225.89 601.009 1229.37 596.123 C 1228 582.278 1221.95 562.126 1217.77 549.021 C 1197.43 542.711 1177.45 536.302 1184.6 509.208 C 1186.49 502.044 1193.31 490.73 1199.68 487.216 C 1204.73 491.891 1206.95 493.551 1212.72 497.378 z"/>
<path transform="translate(0,0)" fill="rgb(200,199,199)" d="M 1180.04 719.244 C 1211.26 717.942 1204.44 720.046 1217.2 694.043 C 1237.53 715.227 1243.3 796.69 1242.69 826.342 C 1241.87 877.205 1232.04 927.52 1213.67 974.958 C 1207.8 989.788 1198.83 1005.7 1193.7 1019.02 C 1188.16 1009.36 1186.32 1006.2 1178.1 998.768 C 1175.06 995.746 1172.5 994.008 1171.82 989.951 C 1172.09 989.393 1172.94 987.11 1172.68 986.571 C 1165.3 971.814 1160.21 956.117 1154.26 940.819 C 1147.65 917.562 1124.99 897.849 1108.65 879.817 C 1100.68 881.098 1094.12 879.796 1086.11 878.726 C 1074.27 867.199 1063.16 856.962 1053.17 843.657 C 1067.63 837.434 1065.83 834.509 1070.02 820.524 C 1073.27 809.66 1092.63 803.714 1102.7 798.963 C 1108.87 800.677 1121.56 807.119 1127.1 806.589 C 1137.49 805.597 1160.36 781.545 1166.97 774.273 C 1162.97 750.36 1154.93 738.065 1180.04 719.244 z"/>
<path transform="translate(0,0)" fill="rgb(254,254,254)" d="M 1205.87 648.531 C 1205.82 642.083 1206.88 601.304 1221.4 611.061 C 1276.42 710.181 1288.65 833.33 1257.53 941.95 C 1249.01 972.217 1237.01 1001.4 1221.78 1028.91 C 1216.47 1038.38 1204.21 1056.7 1200.28 1065.08 C 1199.1 1064.28 1198.67 1063.68 1197.67 1062.64 C 1196.08 1050.85 1190.41 1028.92 1193.7 1019.02 C 1198.83 1005.7 1207.8 989.788 1213.67 974.958 C 1232.04 927.52 1241.87 877.205 1242.69 826.342 C 1243.3 796.69 1237.53 715.227 1217.2 694.043 C 1219.78 687.845 1222.85 677.33 1225.02 670.668 C 1219.46 662.281 1212.73 655.885 1205.87 648.531 z"/>
<path transform="translate(0,0)" fill="url(#Gradient7)" d="M 1033.36 848.283 C 1039.98 846.175 1046.38 845.019 1053.17 843.657 C 1063.16 856.962 1074.27 867.199 1086.11 878.726 C 1094.12 879.796 1100.68 881.098 1108.65 879.817 C 1124.99 897.849 1147.65 917.562 1154.26 940.819 C 1160.21 956.117 1165.3 971.814 1172.68 986.571 C 1172.94 987.11 1172.09 989.393 1171.82 989.951 C 1172.5 994.008 1175.06 995.746 1178.1 998.768 C 1186.32 1006.2 1188.16 1009.36 1193.7 1019.02 C 1190.41 1028.92 1196.08 1050.85 1197.67 1062.64 C 1198.67 1063.68 1199.1 1064.28 1200.28 1065.08 C 1198.01 1074.93 1199.18 1074.71 1190.84 1082.04 C 1184.84 1087.31 1178.41 1092.23 1172.33 1097.39 C 1169.37 1107.08 1167.17 1117.91 1167.07 1128.07 C 1174.11 1138.95 1184.09 1147 1182.66 1158.44 C 1181.46 1168.04 1165.63 1190.59 1164.61 1195.55 L 1164.18 1196.12 C 1159.82 1201.82 1152.81 1206.59 1152.25 1212.77 C 1156.33 1224.13 1176.72 1283.9 1171.11 1292.22 C 1162.19 1305.46 1101.18 1338.96 1083.27 1346.25 C 1079.1 1347.94 1074.45 1348.04 1070.9 1345.77 C 1058.29 1337.72 1029.01 1306.87 1021.04 1295.27 C 1017.71 1292.69 1013.12 1288.39 1008.52 1289.63 C 986.638 1295.56 965.609 1305.63 944.699 1314.2 C 938.535 1316.73 920.778 1315.31 915.614 1319.13 C 912.04 1316.91 890.422 1313.77 882.326 1311.1 C 873.411 1302.01 873.463 1294.53 871.545 1282.4 C 864.203 1278.23 853.442 1271.53 845.453 1269.63 C 838.358 1267.95 827.116 1271.6 819.604 1271.66 C 813.152 1271.64 806.657 1270.53 800.227 1270.28 C 643.57 1264.22 492.843 1176.9 415.044 1039.86 C 401.692 1016.35 391.668 991.057 381.829 965.974 C 385.619 965.141 389.171 966.025 393.078 966.606 C 402.173 975.464 411.177 984.414 420.089 993.456 C 419.404 1005.42 416.302 1025 424.651 1033.85 C 430.204 1039.74 456.896 1054.28 464.223 1057.09 C 469.183 1062.67 472.724 1069.91 477.726 1076.3 C 545.076 1162.29 652.393 1221.04 761.074 1231.94 C 761.718 1231.96 762.361 1231.99 763.004 1232.02 C 782.017 1232.37 794.228 1267.11 808.426 1256.66 C 819.034 1253.26 832.609 1248.71 842.598 1244.22 C 855.742 1252.61 869.385 1258.61 881.686 1266.34 C 884.472 1274.81 888.937 1290.82 892.922 1297.9 C 905.398 1302.21 925.312 1304.33 938.805 1305.62 C 945.899 1296.66 952.618 1285.99 958.961 1276.37 C 972.387 1276.34 995.332 1270.33 1010.48 1268.41 C 1020.74 1276.3 1027.23 1280.26 1038.62 1285.82 C 1049.56 1280.49 1068.71 1269.55 1077.7 1261.37 C 1077.84 1250.35 1077.92 1239.34 1077.94 1228.32 C 1086.42 1220.43 1101.57 1205.66 1108.62 1197.19 C 1120.68 1198.39 1131 1199.3 1143.11 1198.77 C 1152.36 1187.42 1161.02 1167.91 1167.04 1154.3 C 1160.89 1145.76 1154.06 1137.71 1146.64 1130.25 L 1154.66 1096.96 C 1154.27 1087.37 1154.2 1086.61 1162.12 1081.57 C 1169.28 1076.83 1176.23 1072.38 1182.95 1067.01 C 1182.04 1054.62 1181.88 1030.47 1176.69 1019.65 C 1172.85 1011.63 1156.25 1008.06 1147.41 1005.82 C 1140.13 990.445 1133.44 978.299 1125.13 963.52 C 1129.89 955.229 1133.23 944.827 1136.38 935.74 C 1126 919.883 1116.18 908.89 1101.93 896.246 C 1087.86 898.743 1082.11 900.192 1069.26 905.526 C 1050.94 894.289 1042.86 890.626 1022.8 881.938 C 1023.29 869.094 1022.12 862.912 1018.49 850.482 L 1033.36 848.283 z"/>
<path transform="translate(0,0)" fill="rgb(61,63,65)" d="M 1122.43 1212.99 C 1130.83 1214.4 1136.32 1215.6 1144.61 1213.18 L 1150.98 1211.33 L 1152.25 1212.77 C 1156.33 1224.13 1176.72 1283.9 1171.11 1292.22 C 1162.19 1305.46 1101.18 1338.96 1083.27 1346.25 C 1079.1 1347.94 1074.45 1348.04 1070.9 1345.77 C 1058.29 1337.72 1029.01 1306.87 1021.04 1295.27 C 1028.68 1297.52 1031.1 1299.44 1040.63 1301.6 C 1056.62 1294.65 1079.56 1281.27 1094.08 1271.93 C 1095.69 1260.3 1094.95 1249.56 1096.15 1237.67 C 1106.04 1230.55 1112.62 1220.88 1122.43 1212.99 z"/>
<path transform="translate(0,0)" fill="rgb(254,254,254)" d="M 1033.36 848.283 C 1039.98 846.175 1046.38 845.019 1053.17 843.657 C 1063.16 856.962 1074.27 867.199 1086.11 878.726 C 1079.88 884.837 1075.09 887.912 1067.46 891.959 C 1041.31 883.524 1034.94 874.978 1033.36 848.283 z"/>
<path transform="translate(0,0)" fill="rgb(254,254,254)" d="M 1138.58 960.903 C 1143.49 952.685 1146.45 946.574 1154.26 940.819 C 1160.21 956.117 1165.3 971.814 1172.68 986.571 C 1172.94 987.11 1172.09 989.393 1171.82 989.951 C 1166.4 993.268 1163.4 994.082 1156.89 994.697 C 1150.01 992.964 1141.74 968.281 1138.58 960.903 z"/>
<path transform="translate(0,0)" fill="rgb(222,222,222)" d="M 1156.89 994.697 C 1163.4 994.082 1166.4 993.268 1171.82 989.951 C 1172.5 994.008 1175.06 995.746 1178.1 998.768 C 1171.55 1003.97 1167.24 999.492 1161.94 995.306 C 1161.94 995.305 1157.35 994.752 1156.89 994.697 z"/>
<path transform="translate(0,0)" fill="rgb(200,199,199)" d="M 1162.12 1081.57 C 1164.39 1090.2 1161.29 1091.01 1154.66 1096.96 C 1154.27 1087.37 1154.2 1086.61 1162.12 1081.57 z"/>
<path transform="translate(0,0)" fill="rgb(200,199,199)" d="M 625.18 1050.14 C 635.876 1046.02 650.971 1042.51 662.398 1039.61 C 671.534 1043.24 681.737 1050.39 692.099 1054.92 C 696.997 1053.76 702.792 1051.36 707.602 1049.54 C 708.567 1054.43 710.043 1061.44 709.714 1066.4 C 708.647 1073.75 704.428 1079.3 704.158 1083.02 C 702.369 1107.74 708.075 1138 724.604 1156.77 L 724.305 1157.78 L 724.829 1158.25 C 726.429 1159.68 726.986 1159.95 727.571 1162.03 C 713.443 1179.2 742.51 1202.59 753.486 1216.43 C 756.697 1223.13 761.186 1224.9 763.004 1232.02 C 762.361 1231.99 761.718 1231.96 761.074 1231.94 C 652.393 1221.04 545.076 1162.29 477.726 1076.3 C 472.724 1069.91 469.183 1062.67 464.223 1057.09 C 479.515 1056.09 484.545 1048.47 498.469 1041.96 L 499.743 1041.37 C 511.437 1045.01 523.19 1048.45 534.998 1051.7 C 546.43 1069.34 548.225 1084.64 573.987 1081.97 C 582.91 1081.05 595.504 1082.82 604.06 1080.58 C 613.687 1078.06 620.482 1058.46 625.18 1050.14 z"/>
<path transform="translate(0,0)" fill="url(#Gradient6)" d="M 727.857 1136.7 C 736.2 1148.66 747.238 1145.1 761.38 1150.82 C 769.806 1165.67 772.96 1175.5 782.971 1190.54 L 782.627 1191.78 C 779.143 1204.07 770.856 1213.22 777.141 1224.29 C 784.186 1236.7 800.228 1246.04 808.426 1256.66 C 794.228 1267.11 782.017 1232.37 763.004 1232.02 C 761.186 1224.9 756.697 1223.13 753.486 1216.43 C 742.51 1202.59 713.443 1179.2 727.571 1162.03 C 726.986 1159.95 726.429 1159.68 724.829 1158.25 L 724.305 1157.78 L 724.604 1156.77 L 726.268 1157.59 C 731.38 1155.4 723.474 1146.6 727.857 1136.7 z"/>
<path transform="translate(0,0)" fill="rgb(254,254,254)" d="M 727.571 1162.03 C 754.503 1150.41 757.721 1178.13 768.768 1191.9 C 773.786 1196.61 766.531 1205.22 762.587 1208.88 C 761.707 1209.69 760.807 1210.49 759.89 1211.25 C 756.491 1213.17 755.956 1213.44 753.486 1216.43 C 742.51 1202.59 713.443 1179.2 727.571 1162.03 z"/>
<path transform="translate(0,0)" fill="rgb(222,222,222)" d="M 768.768 1191.9 C 773.786 1196.61 766.531 1205.22 762.587 1208.88 C 761.707 1209.69 760.807 1210.49 759.89 1211.25 L 755.638 1206.84 C 753.671 1197.81 764.496 1200.86 768.768 1191.9 z"/>
<path transform="translate(0,0)" fill="rgb(200,199,199)" d="M 849.848 832.213 C 846.974 812.051 853.701 790.377 843.521 777.813 C 838.82 772.011 826.886 768.498 825.123 765.414 C 830.503 762.987 844.491 771.032 849.15 774.189 C 863.955 784.219 861.013 803.05 863.259 819.166 C 876.348 822.817 882.025 825.474 893.962 831.4 C 884.918 832.898 884.549 842.985 883.327 850.715 C 887.2 854.769 891.078 859.014 896.532 860.913 C 893.018 860.624 888.628 859.847 885.068 859.322 C 878.31 855.079 873.558 852.235 866.383 848.632 C 854.049 851.951 831.386 864.186 822.028 872.49 C 822.547 884.008 824.971 894.02 825.264 907.48 C 800.562 878.577 810.005 886.272 814.961 852.45 C 828.534 845.46 837.287 840.826 849.848 832.213 z"/>
<path transform="translate(0,0)" fill="url(#Gradient5)" d="M 736.874 1031.26 C 737.635 1028.33 737.86 1026.25 739.824 1023.97 C 744.277 1024.29 745.397 1029.85 746.703 1033.59 C 742.875 1049.44 743.509 1061.75 745.104 1077.76 C 717.155 1091.1 715.681 1094.09 724.283 1124.42 C 725.466 1128.59 726.188 1132.52 727.857 1136.7 C 723.474 1146.6 731.38 1155.4 726.268 1157.59 L 724.604 1156.77 C 708.075 1138 702.369 1107.74 704.158 1083.02 C 704.428 1079.3 708.647 1073.75 709.714 1066.4 C 710.043 1061.44 708.567 1054.43 707.602 1049.54 C 718.536 1042.17 725.159 1037.35 736.874 1031.26 z"/>
<path transform="translate(0,0)" fill="rgb(254,254,254)" d="M 736.874 1031.26 C 738.153 1037.33 735.855 1060.94 734.855 1067.84 C 728.698 1071.21 714.86 1081.32 709.894 1073.75 L 709.714 1066.4 C 710.043 1061.44 708.567 1054.43 707.602 1049.54 C 718.536 1042.17 725.159 1037.35 736.874 1031.26 z"/>
<path transform="translate(0,0)" fill="rgb(254,254,254)" d="M 905.357 832.144 C 909.618 831.91 913.775 831.529 917.802 830.323 C 923.423 828.64 932.039 821.571 937.466 822.844 C 939.994 823.437 941.135 823.233 943.827 822.968 L 944.672 822.877 L 963.512 824.119 C 969.875 828.797 960.267 838.173 957.618 844.506 C 955.362 847.681 947.639 856.67 946.919 857.866 C 938.414 862.727 917.548 865.597 907.827 864.523 C 905.085 863.386 899.565 861.858 896.532 860.913 C 891.078 859.014 887.2 854.769 883.327 850.715 C 884.549 842.985 884.918 832.898 893.962 831.4 C 898.677 832.114 900.456 832.462 905.357 832.144 z"/>
<path transform="translate(0,0)" fill="rgb(200,199,199)" d="M 963.512 824.119 C 973.012 824.999 988.676 826.449 997.344 829.727 C 1001.92 835.392 1004.4 839.37 1008.27 845.606 C 996.826 842.526 974.532 836.316 963.092 841.716 C 960.98 842.713 960.339 843.588 957.618 844.506 C 960.267 838.173 969.875 828.797 963.512 824.119 z"/>
<path transform="translate(0,0)" fill="url(#Gradient4)" d="M 946.919 857.866 C 949.449 861.073 949.241 859.807 948.89 862.989 C 943.477 869.107 917.091 871.572 908.817 870.321 C 904.464 869.663 900.621 869.167 895.958 868.964 C 893.933 866.734 887.928 862.029 885.068 859.322 C 888.628 859.847 893.018 860.624 896.532 860.913 C 899.565 861.858 905.085 863.386 907.827 864.523 C 917.548 865.597 938.414 862.727 946.919 857.866 z"/>
<path transform="translate(0,0)" fill="rgb(151,150,150)" d="M 885.068 859.322 C 888.628 859.847 893.018 860.624 896.532 860.913 C 899.565 861.858 905.085 863.386 907.827 864.523 C 903.417 868.606 902.738 868.256 895.958 868.964 C 893.933 866.734 887.928 862.029 885.068 859.322 z"/>
<path transform="translate(0,0)" fill="rgb(254,254,254)" d="M 414.147 607.828 C 416.407 612.366 418.012 622.213 418.613 627.501 C 414.294 631.997 397.879 650.31 393.642 650.621 C 398.4 637.021 407.377 620.789 414.147 607.828 z"/>
<path transform="translate(0,0)" fill="rgb(112,112,112)" d="M 1102.7 446.002 C 1107.19 444.883 1108.89 444.174 1113.55 444.594 C 1125.48 458.028 1129.88 454.956 1145.87 450.791 L 1151.92 452.359 L 1152.14 453.124 C 1145.86 453.962 1123.77 454.818 1121.15 458.087 C 1125.01 467.622 1144.9 456.048 1153.57 459.146 C 1143.95 460.906 1137.27 463.182 1128.21 466.357 C 1119.85 460.279 1110.05 453.133 1102.7 446.002 z"/>
<path transform="translate(0,0)" fill="rgb(200,199,199)" d="M 497.884 595.15 C 511.024 590.556 543.475 585.556 546.443 574.597 C 554.127 546.218 569.532 552.086 600.826 552.429 C 605.813 562.114 611.322 574.092 617.779 582.503 C 623.558 584.607 651.527 590.515 659.629 592.519 C 670.553 586.75 677.094 580.25 689.502 576.009 C 696.714 578.403 718.641 590.618 725.089 594.954 C 725.205 605.163 725.596 619.557 723.95 629.336 C 732.819 637.35 740.768 644.632 748.767 653.519 C 759.474 663.25 772.173 658.987 785.913 657.888 C 793.001 670.133 799.986 682.437 806.868 694.799 C 801.279 704.555 795.615 714.267 789.875 723.935 C 794.479 736.628 798.804 757.477 804.087 767.863 C 814.22 774.557 828.888 779.529 836.486 786.776 C 836.763 793.344 837.066 799.808 837.068 806.389 C 837.763 813.317 837.697 820.301 836.869 827.215 C 826.877 833.764 816.335 838.561 807.013 844.757 C 803.118 856.171 794.306 880.163 799.391 890.994 C 803.084 898.858 811.145 906.843 815.243 915.38 C 810.074 925.176 799.913 944.396 793.868 953.461 C 784.454 953.464 770.019 953.712 761.215 951.532 C 753.401 959.058 732.617 980.392 725.248 986.367 C 731.42 1031.09 729.998 1022.18 693.127 1043.47 C 682.618 1037.25 671.882 1031.43 660.94 1026.02 C 647.164 1030.91 632.146 1034.11 618.039 1038.43 C 611.718 1047.69 607.499 1060.44 602.163 1067.85 C 599.771 1071.17 564.112 1070.47 559.415 1065.31 C 552.292 1057.49 547.208 1048.19 541.825 1039.29 C 528.07 1035.22 512.784 1031.73 498.787 1028.06 C 487.226 1033.32 478.313 1040.47 467.315 1046.2 C 455.048 1037.18 442.945 1032.48 431.025 1024.6 C 430.968 1011.97 431.524 999.892 432.087 987.262 C 422.924 979.07 404.706 959.918 396.051 955.203 C 384.683 954.976 372.222 956.687 361.924 955.823 C 354.704 943.524 346.188 929.963 341.329 916.734 C 347.301 907.607 356.848 897.824 361.562 889.957 C 358.701 884.885 352.105 858.613 348.643 849.422 C 343.028 844.789 326.314 835.335 319.415 831.279 C 319.212 819.69 318.096 806.621 318.413 795.309 C 318.713 784.654 342.348 777.555 350.953 770.865 C 354.38 759.611 357.209 743.523 360.784 730.728 C 357.844 724.182 354.433 719.228 350.558 713.245 C 346.831 710.011 343.719 703.624 341.816 699.098 C 346.546 686.801 355.865 672.83 363.271 661.866 C 373.87 661.726 388.903 663.076 399.59 664.004 C 430.46 631.574 431.501 646.464 427.857 597.937 C 439.667 589.727 452.296 582.763 465.543 577.158 C 473.628 580.517 489.069 590.282 497.884 595.15 z"/>
<path transform="translate(0,0)" fill="rgb(61,63,65)" d="M 763.502 823.94 C 757.561 910.845 692.156 982.014 606.061 995.256 C 519.966 1008.5 436.197 960.273 404.415 879.171 C 372.633 798.068 401.334 705.77 473.504 656.992 C 545.674 608.214 642.018 615.997 705.422 675.728 C 745.991 713.947 767.304 768.333 763.502 823.94 z"/>
<path transform="translate(0,0)" fill="rgb(254,254,254)" d="M 566.271 674.314 C 569.174 674.046 572.083 673.843 574.995 673.707 C 604.022 672.523 632.937 684.015 654.081 703.746 C 674.984 723.232 687.216 750.276 688.045 778.841 C 689.906 837.608 625.767 915.211 587.674 955.705 C 585.085 958.333 581.626 961.137 578.778 963.577 C 537.716 922.874 482.512 856.887 471.699 798.396 C 460.82 739.543 508.093 683.14 566.271 674.314 z"/>
<path transform="translate(0,0)" fill="url(#Gradient3)" d="M 509.617 718.438 C 523.726 701.157 546.937 690.829 568.948 688.194 C 638.915 679.82 696.829 750.846 668.287 817.027 C 666.512 821.142 664.331 826.83 661.86 830.585 C 656.813 843.63 623.189 898.11 615.767 903.143 C 611.245 912.123 587.351 939.371 579.757 946.531 C 543.852 909.432 509.226 866.562 489.588 817.971 C 483.05 801.792 480.088 772.388 487.516 756.175 C 491.979 741.177 498.503 729.501 509.617 718.438 z"/>
<path transform="translate(0,0)" fill="url(#Gradient2)" d="M 509.617 718.438 C 510.667 722.143 509.118 720.879 509.231 722.584 C 510.238 737.719 522.914 747.357 525.791 761.646 C 526.125 763.302 526.313 763.647 527.052 765.144 L 527.824 764.971 L 528.492 762.115 C 528.818 762.808 529.486 764.091 529.668 764.767 L 527.599 773.93 C 528.626 807.1 540.274 821.76 571.629 832.823 C 582.48 835.076 589.748 832.288 600.248 829.585 C 604.075 829.978 604.741 828.837 608.796 826.867 C 627.584 833.381 634.834 838.044 651.894 846.93 C 654.524 842.764 659.36 831.701 661.86 830.585 C 656.813 843.63 623.189 898.11 615.767 903.143 C 611.245 912.123 587.351 939.371 579.757 946.531 C 543.852 909.432 509.226 866.562 489.588 817.971 C 483.05 801.792 480.088 772.388 487.516 756.175 C 491.979 741.177 498.503 729.501 509.617 718.438 z"/>
<path transform="translate(0,0)" fill="url(#Gradient1)" d="M 600.248 829.585 C 604.075 829.978 604.741 828.837 608.796 826.867 C 627.584 833.381 634.834 838.044 651.894 846.93 C 654.524 842.764 659.36 831.701 661.86 830.585 C 656.813 843.63 623.189 898.11 615.767 903.143 C 613.757 904.285 612.813 905.406 610.003 906.891 C 598.97 900.919 588.09 874.683 583.369 863.3 C 577.326 848.731 585.207 845.187 571.629 832.823 C 582.48 835.076 589.748 832.288 600.248 829.585 z"/>
<path transform="translate(0,0)" fill="rgb(112,112,112)" d="M 509.617 718.438 C 510.667 722.143 509.118 720.879 509.231 722.584 C 510.238 737.719 522.914 747.357 525.791 761.646 C 526.125 763.302 526.313 763.647 527.052 765.144 L 527.824 764.971 L 528.492 762.115 C 528.818 762.808 529.486 764.091 529.668 764.767 L 527.599 773.93 C 527.051 776.319 526.698 779.809 526.363 782.313 C 524.539 783.9 525.62 783.28 522.455 783.265 C 512.821 778.476 499.912 759.18 492.981 750.981 L 491.405 751.373 L 488.663 757.17 L 487.516 756.175 C 491.979 741.177 498.503 729.501 509.617 718.438 z"/>
<path transform="translate(0,0)" fill="rgb(254,254,254)" d="M 529.668 764.767 C 535.982 749.882 543.751 739.405 559.363 733.128 C 572.81 727.809 587.821 728.062 601.081 733.833 C 613.588 739.095 623.388 749.258 628.193 761.948 C 633.698 776.611 632.093 791.473 625.517 805.529 C 620.238 816.812 616.399 819.01 606.059 825.932 C 604.494 826.98 601.366 828.397 600.248 829.585 C 589.748 832.288 582.48 835.076 571.629 832.823 C 540.274 821.76 528.626 807.1 527.599 773.93 L 529.668 764.767 z"/>
<path transform="translate(0,0)" fill="rgb(222,222,222)" d="M 748.767 653.519 C 759.474 663.25 772.173 658.987 785.913 657.888 C 793.001 670.133 799.986 682.437 806.868 694.799 C 801.279 704.555 795.615 714.267 789.875 723.935 C 794.479 736.628 798.804 757.477 804.087 767.863 C 814.22 774.557 828.888 779.529 836.486 786.776 C 836.763 793.344 837.066 799.808 837.068 806.389 L 836.74 805.075 C 834.3 795.1 837.568 787.032 826.632 781.597 C 820.594 778.595 815.323 776.649 809.552 772.429 C 808.144 771.399 797.302 762.523 797.213 762.513 C 787.835 761.474 770.391 771.738 764.823 779.541 C 762.084 790.804 770.834 812.989 764.836 823.535 L 763.502 823.94 C 767.304 768.333 745.991 713.947 705.422 675.728 L 706.863 675.099 C 724.927 686.812 736.814 716.404 747.652 728.74 C 756.838 729.23 778.606 726.317 787.203 723.051 C 789.831 720.497 802.518 699.453 803.314 696.52 C 804.86 690.826 789.946 669.085 786.168 661.241 L 785.532 659.906 C 771.083 660.129 758.97 665.797 748.118 654.819 L 748.767 653.519 z"/>
<path transform="translate(0,0)" fill="rgb(222,222,222)" d="M 350.558 713.245 L 352.143 712.792 C 365.602 730.728 360.437 740.326 355.385 760.087 C 354.434 763.807 353.612 767.654 352.442 771.33 C 342.894 779.918 332.905 781.695 321.14 790.032 C 320.825 795.589 319.974 803.318 321.322 808.474 C 326.77 814.015 377.603 811.886 382.053 826.298 C 380.717 830.846 379.826 832.737 377.849 836.898 C 372.908 840.228 354.678 851.892 353.133 857.571 C 352.35 860.448 357.086 867.366 358.212 871.051 C 360.194 877.538 359.751 883.519 362.94 889.537 C 362.481 889.677 362.022 889.817 361.562 889.957 C 358.701 884.885 352.105 858.613 348.643 849.422 C 343.028 844.789 326.314 835.335 319.415 831.279 C 319.212 819.69 318.096 806.621 318.413 795.309 C 318.713 784.654 342.348 777.555 350.953 770.865 C 354.38 759.611 357.209 743.523 360.784 730.728 C 357.844 724.182 354.433 719.228 350.558 713.245 z"/>
<path transform="translate(0,0)" fill="rgb(61,63,65)" d="M 933.906 910.191 C 1021.63 901.989 1099.51 966.198 1108.18 1053.88 C 1116.85 1141.57 1053.05 1219.78 965.414 1228.91 C 877.117 1238.12 798.185 1173.73 789.451 1085.39 C 780.718 997.046 845.517 918.456 933.906 910.191 z"/>
<path transform="translate(0,0)" fill="rgb(254,254,254)" d="M 955.183 935.78 C 972.926 941.737 989.355 949.463 1006.15 957.635 C 1015.93 962.393 1027.9 969.536 1037.76 973.325 C 1045.71 971.175 1051.17 968.963 1058.92 973.507 C 1065.16 976.979 1067.97 987.948 1064.57 994.083 C 1064.21 994.74 1063.54 996.549 1063.67 997.375 C 1066.08 1013.06 1066.85 1028.11 1065.83 1044 C 1064.62 1062.86 1059.99 1081.12 1055.36 1099.42 C 1057.53 1104.4 1063.09 1109.46 1063.69 1114.05 C 1065.79 1130.24 1052.83 1132.7 1040.94 1134.56 C 1038.92 1134.87 1026.32 1158.47 1022.73 1160.44 C 1003.98 1182.19 980.463 1201.99 953.765 1213.14 C 910.407 1194.77 890.055 1170.16 865.982 1131.9 L 865.147 1133 C 842.166 1163.27 809.718 1107.09 853.681 1104.86 C 842.495 1080.34 836.856 1012.3 841.517 987.005 C 851.226 981.8 861.08 977.4 870.749 972.246 C 894.375 959.652 928.852 940.129 955.183 935.78 z"/>
<path transform="translate(0,0)" fill="rgb(200,199,199)" d="M 853.681 1104.86 C 858.311 1111.13 863.477 1124.26 865.982 1131.9 L 865.147 1133 C 842.166 1163.27 809.718 1107.09 853.681 1104.86 z"/>
<path transform="translate(0,0)" fill="rgb(61,63,65)" d="M 1033.6 998.638 C 1034.6 995.02 1036.96 992.974 1039.51 990.094 C 1041.5 994.263 1044.18 997.969 1042.93 1002.02 C 1048.96 1007.73 1048.74 1013.4 1048.7 1022.27 C 1048.57 1050.5 1046.65 1083.68 1029.8 1107.08 C 1010.4 1100.39 995.584 1092.99 974.188 1086.38 C 970.656 1088.08 971.198 1087.13 970.227 1089.9 C 970.825 1091.22 971.297 1092.26 971.971 1093.56 C 987.049 1100.46 1015.44 1108.46 1026.92 1117.89 C 1015.5 1147.86 981.741 1179.22 953.875 1194.76 C 927.268 1180.85 908.275 1164.37 890.888 1139.58 C 885.774 1132.29 881.177 1122.94 876.204 1116.14 C 875.867 1113.72 874.611 1111.19 873.647 1108.85 C 861.718 1084.05 857.836 1056.49 858.878 1029.23 C 862.858 1024.73 867.541 1021.35 872.277 1017.67 C 881.119 1019.08 892.113 1022.06 901.167 1023.81 C 908.384 1025.21 919.808 1027.12 926.563 1029.09 C 928.267 1038.96 932.704 1041.98 941.186 1048.1 C 954.65 1057.8 968.07 1039.04 970.202 1027.44 C 970.769 1024.36 972.494 1024.36 974.95 1023.07 C 977.63 1022.17 981.747 1020.03 984.481 1018.79 C 1000.63 1011.43 1017.18 1005.29 1033.6 998.638 z"/>
<path transform="translate(0,0)" fill="rgb(61,63,65)" d="M 925.146 1086.3 C 927.321 1089.14 926.839 1087.6 926.834 1091.01 C 931.203 1097.87 935.085 1103 943.112 1106.19 C 952.111 1109.76 966.985 1093.92 971.971 1093.56 C 987.049 1100.46 1015.44 1108.46 1026.92 1117.89 C 1015.5 1147.86 981.741 1179.22 953.875 1194.76 C 927.268 1180.85 908.275 1164.37 890.888 1139.58 C 885.774 1132.29 881.177 1122.94 876.204 1116.14 C 875.867 1113.72 874.611 1111.19 873.647 1108.85 C 891.114 1100.41 906.752 1092.64 925.146 1086.3 z"/>
<path transform="translate(0,0)" fill="rgb(200,199,199)" d="M 925.146 1086.3 C 927.321 1089.14 926.839 1087.6 926.834 1091.01 C 920.01 1096.34 885.879 1112.21 876.204 1116.14 C 875.867 1113.72 874.611 1111.19 873.647 1108.85 C 891.114 1100.41 906.752 1092.64 925.146 1086.3 z"/>
<path transform="translate(0,0)" fill="rgb(151,150,150)" d="M 925.146 1086.3 C 926.206 1085.09 926.807 1085.04 926.877 1083.44 C 927.39 1071.75 940.161 1060.02 951.673 1061.28 C 960.472 1062.24 967.575 1077.51 971.146 1085.31 L 974.188 1086.38 C 970.656 1088.08 971.198 1087.13 970.227 1089.9 C 970.825 1091.22 971.297 1092.26 971.971 1093.56 C 966.985 1093.92 952.111 1109.76 943.112 1106.19 C 935.085 1103 931.203 1097.87 926.834 1091.01 C 926.839 1087.6 927.321 1089.14 925.146 1086.3 z"/>
<path transform="translate(0,0)" fill="rgb(200,199,199)" d="M 1033.6 998.638 C 1034.6 995.02 1036.96 992.974 1039.51 990.094 C 1041.5 994.263 1044.18 997.969 1042.93 1002.02 C 1041.06 1002.74 1039.17 1003.41 1037.27 1004.04 C 1036.04 1001.62 1035.41 1000.65 1033.6 998.638 z"/>
<path transform="translate(0,0)" fill="rgb(61,63,65)" d="M 868.608 995.652 C 891.018 978.053 926.807 963.464 953.313 953.281 C 965.603 960.348 1021.6 980.581 1026.65 988.99 L 1026.23 990.665 C 1022.6 993.262 1019.17 994.625 1015.07 996.316 C 999.086 1002.9 983.522 1010.39 967.938 1017.87 C 963.554 1015.1 952.784 1004.65 947.122 1004.69 C 939.619 1004.74 931.466 1017.28 927.043 1021.78 C 902.605 1017.01 883.909 1015.88 868.608 995.652 z"/>
<path transform="translate(0,0)" fill="rgb(200,199,199)" d="M 640.735 93.6507 C 691.02 94.729 739.8 92.7394 789.988 90.5092 C 803.804 89.8953 842.139 91.703 852.936 88.5054 C 853.758 89.0917 854.781 89.8214 856.005 90.6945 C 871.576 92.652 891.54 93.4109 906.741 95.2018 C 924.888 97.4424 942.9 100.671 960.696 104.873 C 970.279 107.166 985.224 111.397 995.274 113.079 C 995.86 113.177 997.453 111.972 998.015 111.549 C 1023.01 124.23 1395.89 358.758 1396.2 359.177 C 1394.96 367.141 1413.15 385.098 1418.64 392.743 C 1431.89 411.221 1443.74 430.084 1455.24 449.691 C 1459.54 456.765 1470.28 479.056 1474.99 482.207 C 1475.26 485.092 1493.36 527.133 1495.48 530.582 C 1505.88 547.501 1525.8 626.144 1539.05 633.31 C 1548.15 650.558 1568.96 678.849 1580.73 695.849 C 1581.76 743.655 1580.95 793.91 1580.88 841.921 L 1580.82 1070.89 C 1580.79 1108.11 1580.05 1147.22 1580.88 1184.29 C 1555.83 1202.07 1528.46 1218.73 1503.21 1236.36 C 1493.31 1243.28 1475.71 1253.18 1467.16 1260.68 C 1476.73 1238.18 1483.62 1213.27 1491.64 1190.13 C 1499.73 1166.8 1496.22 1161.62 1518.63 1147.79 C 1517.88 1115.19 1518.06 1069.23 1518.99 1036.51 C 1508.26 1056.73 1502.6 1083.67 1492.26 1104.06 C 1447.11 1193.06 1420.95 1288.82 1385.18 1381.55 C 1379.57 1396.1 1373.33 1416.68 1365.91 1430.06 C 1351.92 1436.44 1320.84 1444.22 1305.15 1448.57 L 1193.89 1479.37 L 1057.39 1517.62 C 1036.05 1523.92 1014.62 1529.95 993.129 1535.71 C 985.792 1537.64 973.137 1541.32 966.048 1542.56 C 958.466 1539.06 859.979 1542.57 846.073 1543.4 C 833.567 1544.15 777.355 1541.85 769.043 1544.61 L 768.317 1542.69 C 764.189 1540.65 760.579 1542.11 755.993 1541.69 C 745.517 1540.73 735.006 1539.81 724.563 1538.53 C 695.3 1534.96 666.616 1526.84 637.558 1522.4 C 636.177 1523.17 635.024 1523.81 634.097 1524.32 L 518.895 1445.19 C 493.191 1427.9 463.119 1409.34 438.855 1390.89 C 439.872 1390.71 445.118 1389.93 445.549 1390.15 C 458.477 1396.72 477.986 1409.93 489.786 1416.48 C 518.315 1432.31 546.69 1444.42 576.856 1455.67 C 711.701 1507.36 859.523 1514.65 998.802 1476.5 C 1140.45 1436.42 1262.04 1360.67 1354.36 1245.25 C 1382.97 1209.48 1401.6 1184.09 1424.38 1143.17 C 1512.12 984.402 1533.03 797.227 1482.49 623.008 C 1450.8 514.52 1392.17 415.815 1312.06 336.081 C 1273.04 297.683 1216.13 253.308 1168.41 226.452 C 1002.24 132.923 810.548 106.352 626.681 159.741 C 454.331 209.786 299.178 322.776 212.49 481.877 C 156.087 584.637 126.149 697.755 123.705 815.458 C 123.113 843.969 127.086 873.114 131.117 901.36 C 149.094 1035.23 205.83 1160.92 294.34 1262.96 C 312.634 1283.86 333.812 1303.87 354.339 1323.07 C 368.859 1336.14 385.084 1347.25 399.954 1359.88 C 400.775 1360.57 402.023 1365.27 402.326 1366.42 C 373.908 1349.17 339.111 1323.69 310.898 1304.64 C 285.909 1287.76 245.798 1263.01 223.043 1244.68 C 187.249 1220.82 152.064 1196.3 116.046 1172.58 C 116.472 1143.73 115.724 1114.18 115.845 1085.21 C 113.851 1061.11 115.56 1025.51 115.614 1000.64 L 116.717 821.281 C 116.912 795.826 116.049 769.149 115.836 743.503 L 115.681 624.134 C 115.401 579.535 114.497 533.804 115.308 489.245 C 118.124 493.183 114.845 576.08 116.045 588.663 L 116.987 589.34 C 125.796 583.453 165.377 405.425 171.572 380.666 C 185.562 324.756 202.435 261.842 214.931 205.622 C 233.992 199.177 259.604 192.607 279.367 187.164 L 370.67 161.656 C 452.464 138.076 534.492 115.32 616.743 93.3909 L 628.139 90.078 C 633.656 94.6937 637.416 91.1882 640.735 93.6507 z"/>
<path transform="translate(0,0)" fill="rgb(254,254,254)" d="M 116.491 1035.28 C 122.032 1049.2 126.052 1064.81 131.709 1079.32 C 149.071 1123.28 170.762 1165.4 196.463 1205.06 C 202.237 1214.01 208.565 1222.59 215.408 1230.76 C 217.757 1233.59 224.743 1240.42 224.264 1243.45 L 223.043 1244.68 C 187.249 1220.82 152.064 1196.3 116.046 1172.58 C 116.472 1143.73 115.724 1114.18 115.845 1085.21 C 117.123 1068.79 115.418 1051.42 116.491 1035.28 z"/>
<path transform="translate(0,0)" fill="rgb(100,100,101)" d="M 616.743 93.3909 L 628.139 90.078 C 633.656 94.6937 637.416 91.1882 640.735 93.6507 C 634.561 93.8504 622.267 94.7058 616.743 93.3909 z"/>
<path transform="translate(0,0)" fill="rgb(254,254,254)" d="M 401.296 215.06 C 402.243 215.221 401.613 215.052 403.018 215.986 C 402.646 216.638 349.186 255.622 343.215 260.533 C 301.944 294.473 270.158 326.009 236.845 367.892 L 235.751 367.742 C 235.143 365.859 262.18 276.663 262.673 265.583 C 262.721 264.506 265.136 256.463 265.617 254.891 C 273.013 251.525 294.648 245.461 303.456 242.798 C 335.935 233.085 368.552 223.838 401.296 215.06 z"/>
<path transform="translate(0,0)" fill="rgb(254,254,254)" d="M 1337.66 1329.75 C 1337.78 1329.87 1337.95 1329.95 1338.04 1330.1 C 1339.86 1333.29 1323.12 1374.87 1320.94 1380.9 C 1303.03 1384.38 1277.59 1392.25 1260.33 1398.29 L 1259.52 1397.52 C 1260.9 1394.64 1267.06 1391.06 1269.87 1389.13 C 1295.12 1371.78 1315.91 1351.18 1337.66 1329.75 z"/>
<path transform="translate(0,0)" fill="rgb(61,63,65)" d="M 53.0397 420.137 C 84.1056 397.917 114.961 375.403 145.601 352.599 L 130.821 412.43 C 126.954 428.671 126.904 441.504 115.787 452.407 C 113.938 454.221 115.139 483.318 115.308 489.245 C 114.497 533.804 115.401 579.535 115.681 624.134 L 115.836 743.503 C 116.049 769.149 116.912 795.826 116.717 821.281 L 115.614 1000.64 C 115.56 1025.51 113.851 1061.11 115.845 1085.21 C 115.724 1114.18 116.472 1143.73 116.046 1172.58 C 152.064 1196.3 187.249 1220.82 223.043 1244.68 C 245.798 1263.01 285.909 1287.76 310.898 1304.64 C 339.111 1323.69 373.908 1349.17 402.326 1366.42 C 414.601 1374.43 426.778 1382.59 438.855 1390.89 C 463.119 1409.34 493.191 1427.9 518.895 1445.19 L 634.097 1524.32 C 635.024 1523.81 636.177 1523.17 637.558 1522.4 C 666.616 1526.84 695.3 1534.96 724.563 1538.53 C 735.006 1539.81 745.517 1540.73 755.993 1541.69 C 760.579 1542.11 764.189 1540.65 768.317 1542.69 L 769.043 1544.61 C 777.355 1541.85 833.567 1544.15 846.073 1543.4 C 859.979 1542.57 958.466 1539.06 966.048 1542.56 C 945.423 1548.29 924.528 1558.04 903.887 1564.69 C 831.548 1587.66 759.42 1611.3 687.511 1635.59 C 651.276 1609.78 614.955 1585.45 578.369 1560.22 L 217.057 1315.18 C 163.253 1278.8 105.271 1242.83 52.9202 1204.66 C 54.3622 1121.17 53.0874 1034.74 53.2177 951.032 L 53.0397 420.137 z"/>
<path transform="translate(0,0)" fill="rgb(254,254,254)" d="M 634.097 1524.32 C 635.024 1523.81 636.177 1523.17 637.558 1522.4 C 666.616 1526.84 695.3 1534.96 724.563 1538.53 C 735.006 1539.81 745.517 1540.73 755.993 1541.69 C 760.579 1542.11 764.189 1540.65 768.317 1542.69 L 769.043 1544.61 C 747.044 1550.66 717.912 1559.84 696.865 1567.59 C 676.093 1552.63 655.096 1538.9 634.097 1524.32 z"/>
<path transform="translate(0,0)" fill="rgb(61,63,65)" d="M 933.164 0 L 934.928 0 L 1538.72 373.048 L 1538.37 539.442 C 1538.29 566.283 1537.02 606.993 1539.05 633.31 C 1525.8 626.144 1505.88 547.501 1495.48 530.582 C 1493.36 527.133 1475.26 485.092 1474.99 482.207 C 1470.28 479.056 1459.54 456.765 1455.24 449.691 C 1443.74 430.084 1431.89 411.221 1418.64 392.743 C 1413.15 385.098 1394.96 367.141 1396.2 359.177 C 1395.89 358.758 1023.01 124.23 998.015 111.549 C 997.453 111.972 995.86 113.177 995.274 113.079 C 985.224 111.397 970.279 107.166 960.696 104.873 C 942.9 100.671 924.888 97.4424 906.741 95.2018 C 891.54 93.4109 871.576 92.652 856.005 90.6945 C 854.781 89.8214 853.758 89.0917 852.936 88.5054 C 842.139 91.703 803.804 89.8953 789.988 90.5092 C 739.8 92.7394 691.02 94.729 640.735 93.6507 C 637.416 91.1882 633.656 94.6937 628.139 90.078 L 755.707 52.6827 C 800.489 40.1678 845.169 27.2912 889.743 14.0541 C 896.975 11.8952 928.142 3.12741 933.164 0 z"/>
<path transform="translate(0,0)" fill="rgb(254,254,254)" d="M 1396.2 359.177 C 1421.75 373.726 1451.99 395.354 1476.19 408.176 C 1475.86 432.701 1475.97 457.777 1474.99 482.207 C 1470.28 479.056 1459.54 456.765 1455.24 449.691 C 1443.74 430.084 1431.89 411.221 1418.64 392.743 C 1413.15 385.098 1394.96 367.141 1396.2 359.177 z"/>
<path transform="translate(0,0)" fill="rgb(254,254,254)" d="M 926.195 66.2313 C 943.464 79.0827 978.523 99.34 998.015 111.549 C 997.453 111.972 995.86 113.177 995.274 113.079 C 985.224 111.397 970.279 107.166 960.696 104.873 C 942.9 100.671 924.888 97.4424 906.741 95.2018 C 891.54 93.4109 871.576 92.652 856.005 90.6945 C 854.781 89.8214 853.758 89.0917 852.936 88.5054 C 876.521 81.6013 903.247 74.2881 926.195 66.2313 z"/>
</svg>
